<?xml version="1.0" encoding="utf-8"?>
<!-- Generator: Adobe Illustrator 17.0.0, SVG Export Plug-In . SVG Version: 6.00 Build 0)  -->
<!DOCTYPE svg PUBLIC "-//W3C//DTD SVG 1.1//EN" "http://www.w3.org/Graphics/SVG/1.1/DTD/svg11.dtd">
<svg version="1.1" id="Capa_1" xmlns="http://www.w3.org/2000/svg" xmlns:xlink="http://www.w3.org/1999/xlink" x="0px" y="0px"
	 width="765.35px" height="878.74px" viewBox="0 0 765.35 878.74" enable-background="new 0 0 765.35 878.74" xml:space="preserve">
<path fill="#FFFFFF" d="M382.056,800.003c-18.9-76.575-37.8-153.149-56.825-230.23c-67.86,40.994-135.436,81.817-203.011,122.639
	c-0.248-0.185-0.496-0.37-0.744-0.555c40.817-67.572,81.634-135.143,122.721-203.161c-77.012-19.008-153.574-37.905-230.137-56.803
	c-0.038-0.313-0.075-0.625-0.113-0.938c76.588-18.906,153.175-37.811,230.25-56.837c-41.041-67.938-81.857-135.504-122.674-203.07
	c0.194-0.236,0.388-0.472,0.582-0.708c67.589,40.828,135.178,81.657,203.125,122.701c19.016-77.046,37.917-153.625,56.817-230.203
	c0.314-0.032,0.627-0.065,0.941-0.097c18.91,76.608,37.82,153.217,56.855,230.333c67.896-41.016,135.462-81.832,203.028-122.649
	c0.236,0.187,0.473,0.374,0.709,0.56c-40.825,67.585-81.65,135.17-122.682,203.097c77.152,19.043,153.815,37.964,230.478,56.886
	c0.008,0.291,0.016,0.581,0.024,0.872c-76.658,18.921-153.316,37.841-230.504,56.892c40.987,67.849,81.807,135.422,122.627,202.995
	c-0.184,0.24-0.367,0.48-0.551,0.72c-67.577-40.821-135.154-81.643-203.13-122.705c-19.018,77.053-37.92,153.636-56.822,230.219
	C382.7,799.975,382.378,799.989,382.056,800.003z"/>
</svg>
